{"title":"Star Wars:Episode II:Attack of the Clones(2002)MPEG-4[DaScubaDud","uid":14151731,"size":1432731135,"categoryP":"video","categoryS":"movies","magnet":"?xt=urn:btih:0acc82e8054326379441e41191e76ef2207fa84f&amp;dn=Star+Wars%3AEpisode+II%3AAttack+of+the+Clones%282002%29MPEG-4%5BDaScubaDud&amp;tr=udp%3A%2F%2Ftracker.leechers-paradise.org%3A6969&amp;tr=udp%3A%2F%2Fzer0day.ch%3A1337&amp;tr=udp%3A%2F%2Fopen.demonii.com%3A1337&amp;tr=udp%3A%2F%2Ftracker.coppersurfer.tk%3A6969&amp;tr=udp%3A%2F%2Fexodus.desync.com%3A6969","seeders":1,"leechers":0,"uploader":"dascuba","files":1,"time":1459648518,"description":"Star Wars: Episode II - Attack of the Clones (2002)\r\nPG | 2h 22min | Action, Adventure, Fantasy | 16 May 2002 (USA)\r\nTen years after initially meeting, Anakin Skywalker shares a forbidden romance with Padmé, while Obi-Wan investigates an assassination attempt on the Senator and discovers a secret clone army crafted for the Jedi.\r\nDirector: George Lucas\r\nWriters: George Lucas (screenplay), Jonathan Hales (screenplay) |\r\nStars: Hayden Christensen, Natalie Portman, Ewan McGregor \r\n\r\nGeneral\r\nComplete name                            : Star Wars IIATTACK_OF_THE_CLONES_Title1.mp4\r\nFormat                                   : MPEG-4\r\nFormat profile                           : Base Media\r\nCodec ID                                 : isom\r\nFile size                                : 1.33 GiB\r\nDuration                                 : 2h 22mn\r\nOverall bit rate                         : 1 342 Kbps\r\nMovie name                               : ATTACK_OF_THE_CLONES\r\nGenre                                    : Science_Fiction\r\nWriting application                      : Lavf54.6.100\r\n\r\nVideo\r\nID                                       : 1\r\nFormat                                   : AVC\r\nFormat/Info                              : Advanced Video Codec\r\nFormat profile                           :   \r\nFormat settings, CABAC                   : No\r\nFormat settings, ReFrames                : 6 frames\r\nCodec ID                                 : avc1\r\nCodec ID/Info                            : Advanced Video Coding\r\nDuration                                 : 2h 22mn\r\nBit rate                                 : 1 207 Kbps\r\nWidth                                    : 720 pixels\r\nHeight                                   : 404 pixels\r\nDisplay aspect ratio                     : 16:9\r\nFrame rate mode                          : Constant\r\nFrame rate                               : 29.970 fps\r\nColor space                              : YUV\r\nChroma subsampling                       : 4:2:0\r\nBit depth                                : 8 bits\r\nScan type                                : Progressive\r\nBits/(Pixel*Frame)                       : 0.139\r\nStream size                              : 1.20 GiB (90%)\r\n\r\nAudio\r\nID                                       : 2\r\nFormat                                   : AAC\r\nFormat/Info                              : Advanced Audio Codec\r\nFormat profile                           : LC\r\nCodec ID                                 : 40\r\nDuration                                 : 2h 22mn\r\nBit rate mode                            : Constant\r\nBit rate                                 : 128 Kbps\r\nChannel(s)                               : 2 channels\r\nChannel positions                        : Front: L R\r\nSampling rate                            : 44.1 KHz\r\nCompression mode                         : Lossy\r\nStream size                              : 130 MiB (10%)","torrent":{"xt":"urn:btih:0acc82e8054326379441e41191e76ef2207fa84f","amp;dn":"Star+Wars%3AEpisode+II%3AAttack+of+the+Clones%282002%29MPEG-4%5BDaScubaDud","amp;tr":["udp%3A%2F%2Ftracker.leechers-paradise.org%3A6969","udp%3A%2F%2Fzer0day.ch%3A1337","udp%3A%2F%2Fopen.demonii.com%3A1337","udp%3A%2F%2Ftracker.coppersurfer.tk%3A6969","udp%3A%2F%2Fexodus.desync.com%3A6969"],"infoHash":"0acc82e8054326379441e41191e76ef2207fa84f","infoHashBuffer":{"type":"Buffer","data":[10,204,130,232,5,67,38,55,148,65,228,17,145,231,110,242,32,127,168,79]},"announce":[],"urlList":[]}}